<svg width="512" height="512" viewBox="0 0 512 512" fill="none" xmlns="http://www.w3.org/2000/svg">
<path fill-rule="evenodd" clip-rule="evenodd" d="M84 136C112.719 136 136 112.719 136 84C136 55.2812 112.719 32 84 32C55.2812 32 32 55.2812 32 84C32 112.719 55.2812 136 84 136ZM416 179.991C470.399 202.392 480 248 480 311.994V479.994H392V311.994C392 223.998 280 231.996 280 327.994V480H192V184H280V216.641C310.582 178.201 372.134 161.927 416 179.991ZM40 184H128V480H40V184Z" fill="#f7f7f7" id="id_102"></path>
</svg>